<svg width="20" height="20" viewBox="0 0 20 20" fill="none" xmlns="http://www.w3.org/2000/svg">
  <path
    d="M10 0C15.5228 0 20 4.47715 20 10C20 15.5228 15.5228 20 10 20C4.47715 20 0 15.5228 0 10C0 4.47715 4.47715 0 10 0ZM11.5693 4C9.37058 4.00005 8.35746 5.05317 8.35742 7.3252V8.2041H7V10.2441H8.35742V16C9.05306 16.0001 10.0004 16 10.7441 16V10.2441H12.5244L12.8936 8.2041H10.7441V7.48242C10.7443 6.40473 11.1614 5.99023 12.2402 5.99023C12.5751 5.99024 12.8447 5.99808 13 6.01465V4.16602C12.7057 4.08308 11.9862 4 11.5693 4Z"
    fill="white" />
</svg>