<svg width="20" height="20" viewBox="0 0 20 20" fill="none" xmlns="http://www.w3.org/2000/svg">
  <path
    d="M5.90918 0.299805H14.0908C17.1831 0.299805 19.7002 2.8169 19.7002 5.90918V14.0908C19.7002 17.1831 17.1831 19.7002 14.0908 19.7002H5.90918C2.8169 19.7002 0.299805 17.1831 0.299805 14.0908V5.90918C0.299805 2.8169 2.8169 0.299805 5.90918 0.299805ZM5.90918 0.609375C2.97691 0.609375 0.609375 2.97691 0.609375 5.90918V14.0908C0.609375 17.0231 2.97691 19.3906 5.90918 19.3906H14.0908C17.0231 19.3906 19.3906 17.0231 19.3906 14.0908V5.90918C19.3906 2.97691 17.0231 0.609375 14.0908 0.609375H5.90918ZM10 5.2998C12.5904 5.2998 14.7002 7.40965 14.7002 10C14.7002 12.5904 12.5904 14.7002 10 14.7002C7.40965 14.7002 5.2998 12.5904 5.2998 10C5.2998 7.40965 7.40965 5.2998 10 5.2998ZM10 5.60938C7.56958 5.60938 5.60938 7.56958 5.60938 10C5.60938 12.4304 7.56958 14.3906 10 14.3906C12.4304 14.3906 14.3906 12.4304 14.3906 10C14.3906 7.56958 12.4304 5.60938 10 5.60938ZM15.4541 3.93652C15.6156 3.93652 15.7705 4.00101 15.8848 4.11523C15.999 4.22946 16.0635 4.38436 16.0635 4.5459C16.0634 4.70728 15.9989 4.86244 15.8848 4.97656C15.7706 5.09051 15.6154 5.1543 15.4541 5.1543C15.2927 5.15418 15.1376 5.09068 15.0234 4.97656C14.9093 4.86244 14.8458 4.70728 14.8457 4.5459C14.8457 4.38457 14.9095 4.22942 15.0234 4.11523C15.1376 4.00111 15.2927 3.93664 15.4541 3.93652Z"
    fill="white" stroke="white" stroke-width="0.6" />
</svg>