<svg xmlns="http://www.w3.org/2000/svg" width="79.569" height="20.932" viewBox="0 0 79.569 20.932"><g transform="translate(-277.9 -177.4)"><path d="M280.565,239.75H277.9V224.36l8.8,5.079-2.666,1.538-3.465-2Z" transform="translate(0 -41.42)" fill="#fff"/><path d="M277.9,180.17V177.4l15.994,9.235v2.77Z" fill="#fff"/><path d="M399.4,177.4l-8.529,4.925,2.409,1.392,6.12-3.547Z" transform="translate(-99.641)" fill="#fff"/><path d="M440.57,225.9l2.665-1.54v15.39H440.57Z" transform="translate(-143.478 -41.42)" fill="#fff"/><path d="M496.242,258.917a6,6,0,0,0-8.282-.015,5.4,5.4,0,0,0-1.694,4.011,5.628,5.628,0,0,0,1.661,4.16,5.564,5.564,0,0,0,4.12,1.678,5.809,5.809,0,0,0,4.186-1.643,5.42,5.42,0,0,0,1.7-4.106A5.535,5.535,0,0,0,496.242,258.917Zm-1.785,6.644a3.411,3.411,0,0,1-4.737-.011,3.67,3.67,0,0,1-.875-2.584,3.493,3.493,0,0,1,.9-2.484,3.37,3.37,0,0,1,4.715,0,3.527,3.527,0,0,1,.887,2.539A3.57,3.57,0,0,1,494.457,265.561Z" transform="translate(-183.781 -70.429)" fill="#fff"/><path d="M612.787,200.88V209.1a4.735,4.735,0,0,0-7.106.078,5.86,5.86,0,0,0-1.471,4.073,6.053,6.053,0,0,0,1.471,4.16,4.812,4.812,0,0,0,3.727,1.633,4.718,4.718,0,0,0,3.379-1.454v1.448h2.537V200.88Zm-.708,14.951a2.91,2.91,0,0,1-2.268.962,2.762,2.762,0,0,1-2.178-1,3.794,3.794,0,0,1-.841-2.55,3.621,3.621,0,0,1,.865-2.461,2.8,2.8,0,0,1,2.177-.984,2.854,2.854,0,0,1,2.242.972,4.135,4.135,0,0,1,0,5.057Z" transform="translate(-287.811 -20.71)" fill="#fff"/><path d="M731.834,263.01a6.012,6.012,0,0,0-1.392-4.217,5.486,5.486,0,0,0-7.655.044,6.021,6.021,0,0,0-1.437,4.182,5.859,5.859,0,0,0,1.482,4.184,5.106,5.106,0,0,0,3.929,1.566,6.635,6.635,0,0,0,1.582-.178,4.774,4.774,0,0,0,1.359-.565,5.56,5.56,0,0,0,1.18-.984,4.222,4.222,0,0,0,.934-1.581l-2.023-1.042a6.328,6.328,0,0,1-1.382,1.652,2.589,2.589,0,0,1-1.557.45,2.672,2.672,0,0,1-1.987-.783,3.289,3.289,0,0,1-.879-2.137h7.835Zm-7.677-1.465a2.925,2.925,0,0,1,.354-.839,2.549,2.549,0,0,1,.566-.631,2.458,2.458,0,0,1,.736-.4,2.619,2.619,0,0,1,.864-.139,2.418,2.418,0,0,1,2.548,2.013Z" transform="translate(-391.131 -70.438)" fill="#fff"/><path d="M823.264,262.532l4.041-5.282h-3.1l-2.481,3.357-2.435-3.357h-3.009l3.929,5.282-4.861,6.227h3.088l3.288-4.3,3.21,4.3h3.009Z" transform="translate(-474.04 -70.429)" fill="#fff"/><path d="M927.829,230.428a1.534,1.534,0,1,1,1.091-.44A1.534,1.534,0,0,1,927.829,230.428Zm.024-2.793A1.257,1.257,0,1,0,929.1,228.9,1.257,1.257,0,0,0,927.852,227.635Z" transform="translate(-571.909 -44.066)" fill="#fff"/><path d="M935.239,235.461l-.284-.418h-.373v.413h-.262l.016-1.416.582.006a.8.8,0,0,1,.32.065.472.472,0,0,1,.206.176.493.493,0,0,1,.07.27.472.472,0,0,1-.081.274.462.462,0,0,1-.224.169l.32.472Zm-.081-1.12a.4.4,0,0,0-.261-.076h-.307l-.006.563h.307a.4.4,0,0,0,.261-.071.288.288,0,0,0,0-.416Z" transform="translate(-578.974 -49.957)" fill="#fff"/></g></svg>