<svg width="50" height="35" viewBox="0 0 50 35" fill="none" xmlns="http://www.w3.org/2000/svg">
<path d="M48.806 6.16926C48.2425 4.07961 46.5819 2.43358 44.4738 1.87501C40.6529 0.859863 25.3301 0.859863 25.3301 0.859863C25.3301 0.859863 10.0072 0.859863 6.18632 1.87501C4.07823 2.43358 2.41768 4.07961 1.85418 6.16926C0.830078 9.95675 0.830078 17.8599 0.830078 17.8599C0.830078 17.8599 0.830078 25.763 1.85418 29.5505C2.41768 31.6401 4.07823 33.2862 6.18632 33.8447C10.0072 34.8599 25.3301 34.8599 25.3301 34.8599C25.3301 34.8599 40.6529 34.8599 44.4738 33.8447C46.5819 33.2862 48.2425 31.6401 48.806 29.5505C49.8301 25.763 49.8301 17.8599 49.8301 17.8599C49.8301 17.8599 49.8301 9.95675 48.806 6.16926ZM20.4301 25.1456V10.5741L33.1603 17.8599L20.4301 25.1456Z" fill="white"/>
</svg>
